<svg id="Layer_1" data-name="Layer 1" xmlns="http://www.w3.org/2000/svg" viewBox="0 0 560.53 560.53"><defs><style>.cls-1{fill:#231f20;}.cls-2{fill:#d7af43;}</style></defs><path class="cls-1" d="M672.09,391v18H427.52A36.81,36.81,0,0,1,400.8,435.7V680.27h-18V435.7A36.82,36.82,0,0,1,356.13,409H111.55V391H356.13a36.82,36.82,0,0,1,26.71-26.72V119.73h18V364.3A36.81,36.81,0,0,1,427.52,391Z" transform="translate(-111.55 -119.73)"/><path class="cls-1" d="M364.58,179.38V158.63S184.76,181.69,162.48,363.8h16.14s1-15.94,8.07-38.71c10.47,3.8,31.83,9.9,69.71,14.47-.93,7.89-1.52,16-1.71,24.24h14.6s.73-8.75,3-22.51c24.57,2.38,55,4.07,92.27,4.33V330.76s-43.37,0-89.53-4.29c3.7-18.2,9.61-41,18.81-63.38a697.53,697.53,0,0,0,70.72,7.74V256a619.68,619.68,0,0,1-64.74-6.38C314.11,219.76,334.79,192.34,364.58,179.38Zm-106,145.37c-25.1-2.92-49.61-7.24-67-13.67a215.05,215.05,0,0,1,39.05-65.21c8,3.73,22.73,9.21,47.36,14.26A296.68,296.68,0,0,0,258.57,324.75Zm25.44-78c-16.3-3.33-31.36-7.82-40.95-13.81,19.77-18.82,45.59-35.73,79.25-47.4C322.31,185.52,302.28,208.63,284,246.73Z" transform="translate(-111.55 -119.73)"/><path class="cls-2" d="M483.78,249.58A619.62,619.62,0,0,1,419.05,256v14.87a698.19,698.19,0,0,0,70.72-7.74c9.2,22.42,15.11,45.18,18.81,63.38-46.16,4.29-89.53,4.29-89.53,4.29v14.86c37.3-.26,67.69-1.95,92.26-4.33,2.3,13.76,3,22.51,3,22.51h14.61c-.19-8.26-.78-16.35-1.71-24.24,37.87-4.57,59.23-10.67,69.7-14.47C604,347.86,605,363.8,605,363.8h16.14c-22.28-182.11-202.1-205.17-202.1-205.17v20.75C448.84,192.34,469.51,219.76,483.78,249.58Zm21.9,10.55c24.63-5,39.33-10.53,47.36-14.26a214.8,214.8,0,0,1,39,65.21c-17.42,6.43-41.92,10.75-67,13.67A297.24,297.24,0,0,0,505.68,260.13Zm-44.37-74.61c33.67,11.67,59.48,28.58,79.26,47.4-9.59,6-24.66,10.48-41,13.81C481.35,208.63,461.31,185.52,461.31,185.52Z" transform="translate(-111.55 -119.73)"/><path class="cls-2" d="M419.06,620.65V641.4s179.81-23.06,202.1-205.17H605s-1,15.94-8.08,38.71c-10.47-3.8-31.83-9.9-69.71-14.47.94-7.89,1.53-16,1.71-24.24h-14.6s-.73,8.75-3,22.51c-24.57-2.38-55-4.07-92.26-4.33v14.86s43.37,0,89.52,4.29c-3.7,18.2-9.6,41-18.8,63.38a698.19,698.19,0,0,0-70.72-7.74v14.87a619.62,619.62,0,0,1,64.73,6.38C469.52,580.27,448.84,607.69,419.06,620.65Zm106-145.37c25.1,2.92,49.61,7.24,67,13.67a215.21,215.21,0,0,1-39,65.21c-8-3.73-22.73-9.21-47.36-14.26A296.69,296.69,0,0,0,525.06,475.28Zm-25.44,78c16.3,3.33,31.36,7.82,41,13.81-19.78,18.82-45.59,35.73-79.26,47.4C461.32,614.51,481.35,591.4,499.62,553.3Z" transform="translate(-111.55 -119.73)"/><path class="cls-1" d="M299.85,550.45a619.62,619.62,0,0,1,64.73-6.38V529.2a698.19,698.19,0,0,0-70.72,7.74c-9.2-22.42-15.1-45.18-18.8-63.38,46.15-4.29,89.52-4.29,89.52-4.29V454.41c-37.3.26-67.69,1.95-92.26,4.33-2.29-13.76-3-22.51-3-22.51H254.7c.18,8.26.77,16.35,1.71,24.24-37.88,4.57-59.24,10.67-69.71,14.47-7-22.77-8.08-38.71-8.08-38.71H162.48c22.29,182.11,202.1,205.17,202.1,205.17V620.65C334.8,607.69,314.12,580.27,299.85,550.45ZM278,539.9c-24.63,5.05-39.33,10.53-47.36,14.26a215.21,215.21,0,0,1-39-65.21c17.42-6.43,41.93-10.75,67-13.67A296.69,296.69,0,0,0,278,539.9Zm44.37,74.61c-33.67-11.67-59.48-28.58-79.26-47.4,9.6-6,24.66-10.48,41-13.81C302.29,591.4,322.32,614.51,322.32,614.51Z" transform="translate(-111.55 -119.73)"/></svg>